<svg xmlns="http://www.w3.org/2000/svg" xmlns:xlink="http://www.w3.org/1999/xlink" width="260" zoomAndPan="magnify" viewBox="0 0 194.87999 179.999997" height="240" preserveAspectRatio="xMidYMid meet" version="1.0"><defs><clipPath id="31f445164e"><path d="M 13.054688 0.0546875 L 181.703125 0.0546875 L 181.703125 179.945312 L 13.054688 179.945312 Z M 13.054688 0.0546875 " clip-rule="nonzero"/></clipPath><clipPath id="a2d472be82"><path d="M 32 67 L 145 67 L 145 179.945312 L 32 179.945312 Z M 32 67 " clip-rule="nonzero"/></clipPath><clipPath id="1c49c3d58f"><path d="M 42 67 L 145 67 L 145 169 L 42 169 Z M 42 67 " clip-rule="nonzero"/></clipPath><clipPath id="f7c2a30ad9"><path d="M 42.386719 112.347656 C 42.386719 115.929688 42.726562 119.445312 43.367188 122.847656 C 44.632812 129.554688 47.09375 135.839844 50.511719 141.46875 C 60.351562 157.679688 78.160156 168.507812 98.492188 168.507812 C 100.273438 168.507812 102.035156 168.425781 103.765625 168.261719 C 107.59375 167.910156 111.296875 167.167969 114.863281 166.078125 C 119.691406 164.613281 124.253906 162.5 128.429688 159.863281 C 130.550781 158.523438 132.578125 157.039062 134.496094 155.417969 C 136.164062 153 137.644531 150.421875 138.921875 147.742188 C 140.394531 144.617188 141.601562 141.332031 142.484375 137.917969 C 143.214844 135.148438 143.730469 132.292969 144.019531 129.367188 L 144.027344 129.367188 C 144.214844 127.503906 144.304688 125.605469 144.304688 123.691406 C 144.304688 121.578125 144.191406 119.496094 143.957031 117.453125 C 143.238281 110.808594 141.339844 104.519531 138.5 98.792969 C 138.5 98.78125 138.492188 98.78125 138.492188 98.78125 C 129.328125 80.265625 110.253906 67.527344 88.203125 67.527344 C 85.03125 67.527344 81.933594 67.78125 78.90625 68.296875 C 73.59375 69.183594 68.53125 70.808594 63.835938 73.078125 C 59.964844 74.953125 56.339844 77.25 53.027344 79.933594 C 52.738281 80.167969 52.449219 80.40625 52.160156 80.664062 C 51.636719 81.425781 51.128906 82.207031 50.648438 82.992188 C 46.992188 88.957031 44.40625 95.65625 43.195312 102.828125 C 42.664062 105.925781 42.386719 109.097656 42.386719 112.347656 Z M 42.386719 112.347656 " clip-rule="nonzero"/></clipPath><radialGradient gradientTransform="matrix(-0.999479, 0, 0, 1.000521, 188.940662, -12.88022)" gradientUnits="userSpaceOnUse" r="50.724061" cx="95.644628" id="6119e9f0d4" cy="130.830655" fx="95.644628" fy="130.830655"><stop stop-opacity="1" stop-color="rgb(99.971008%, 53.196716%, 0.128174%)" offset="0"/><stop stop-opacity="1" stop-color="rgb(99.92218%, 52.966309%, 0.352478%)" offset="0.015625"/><stop stop-opacity="1" stop-color="rgb(99.880981%, 52.76947%, 0.546265%)" offset="0.0273438"/><stop stop-opacity="1" stop-color="rgb(99.839783%, 52.571106%, 0.738525%)" offset="0.0390625"/><stop stop-opacity="1" stop-color="rgb(99.798584%, 52.374268%, 0.932312%)" offset="0.0507812"/><stop stop-opacity="1" stop-color="rgb(99.757385%, 52.175903%, 1.124573%)" offset="0.0625"/><stop stop-opacity="1" stop-color="rgb(99.716187%, 51.979065%, 1.318359%)" offset="0.0742188"/><stop stop-opacity="1" stop-color="rgb(99.674988%, 51.780701%, 1.51062%)" offset="0.0859375"/><stop stop-opacity="1" stop-color="rgb(99.633789%, 51.583862%, 1.704407%)" offset="0.0976562"/><stop stop-opacity="1" stop-color="rgb(99.591064%, 51.385498%, 1.896667%)" offset="0.109375"/><stop stop-opacity="1" stop-color="rgb(99.549866%, 51.18866%, 2.090454%)" offset="0.121094"/><stop stop-opacity="1" stop-color="rgb(99.508667%, 50.990295%, 2.282715%)" offset="0.132812"/><stop stop-opacity="1" stop-color="rgb(99.467468%, 50.793457%, 2.476501%)" offset="0.144531"/><stop stop-opacity="1" stop-color="rgb(99.42627%, 50.595093%, 2.668762%)" offset="0.15625"/><stop stop-opacity="1" stop-color="rgb(99.385071%, 50.398254%, 2.862549%)" offset="0.167969"/><stop stop-opacity="1" stop-color="rgb(99.343872%, 50.19989%, 3.05481%)" offset="0.179688"/><stop stop-opacity="1" stop-color="rgb(99.302673%, 50.003052%, 3.24707%)" offset="0.191406"/><stop stop-opacity="1" stop-color="rgb(99.261475%, 49.804688%, 3.440857%)" offset="0.203125"/><stop stop-opacity="1" stop-color="rgb(99.21875%, 49.607849%, 3.633118%)" offset="0.214844"/><stop stop-opacity="1" stop-color="rgb(99.177551%, 49.409485%, 3.826904%)" offset="0.226562"/><stop stop-opacity="1" stop-color="rgb(99.136353%, 49.212646%, 4.019165%)" offset="0.238281"/><stop stop-opacity="1" stop-color="rgb(99.095154%, 49.015808%, 4.212952%)" offset="0.25"/><stop stop-opacity="1" stop-color="rgb(99.040222%, 48.751831%, 4.469299%)" offset="0.261719"/><stop stop-opacity="1" stop-color="rgb(98.971558%, 48.422241%, 4.79126%)" offset="0.28125"/><stop stop-opacity="1" stop-color="rgb(98.902893%, 48.092651%, 5.11322%)" offset="0.300781"/><stop stop-opacity="1" stop-color="rgb(98.832703%, 47.764587%, 5.435181%)" offset="0.320312"/><stop stop-opacity="1" stop-color="rgb(98.764038%, 47.434998%, 5.757141%)" offset="0.339844"/><stop stop-opacity="1" stop-color="rgb(98.695374%, 47.105408%, 6.079102%)" offset="0.359375"/><stop stop-opacity="1" stop-color="rgb(98.634338%, 46.809387%, 6.367493%)" offset="0.378906"/><stop stop-opacity="1" stop-color="rgb(98.579407%, 46.54541%, 6.625366%)" offset="0.394531"/><stop stop-opacity="1" stop-color="rgb(98.522949%, 46.281433%, 6.88324%)" offset="0.410156"/><stop stop-opacity="1" stop-color="rgb(98.468018%, 46.018982%, 7.139587%)" offset="0.425781"/><stop stop-opacity="1" stop-color="rgb(98.413086%, 45.755005%, 7.397461%)" offset="0.441406"/><stop stop-opacity="1" stop-color="rgb(98.358154%, 45.491028%, 7.655334%)" offset="0.457031"/><stop stop-opacity="1" stop-color="rgb(98.303223%, 45.228577%, 7.911682%)" offset="0.472656"/><stop stop-opacity="1" stop-color="rgb(98.248291%, 44.9646%, 8.169556%)" offset="0.488281"/><stop stop-opacity="1" stop-color="rgb(98.199463%, 44.734192%, 8.395386%)" offset="0.503906"/><stop stop-opacity="1" stop-color="rgb(98.158264%, 44.537354%, 8.587646%)" offset="0.515625"/><stop stop-opacity="1" stop-color="rgb(98.117065%, 44.338989%, 8.781433%)" offset="0.527344"/><stop stop-opacity="1" stop-color="rgb(98.074341%, 44.142151%, 8.973694%)" offset="0.539062"/><stop stop-opacity="1" stop-color="rgb(98.033142%, 43.943787%, 9.16748%)" offset="0.550781"/><stop stop-opacity="1" stop-color="rgb(97.991943%, 43.746948%, 9.359741%)" offset="0.5625"/><stop stop-opacity="1" stop-color="rgb(97.950745%, 43.548584%, 9.552002%)" offset="0.574219"/><stop stop-opacity="1" stop-color="rgb(97.909546%, 43.351746%, 9.745789%)" offset="0.585938"/><stop stop-opacity="1" stop-color="rgb(97.868347%, 43.153381%, 9.938049%)" offset="0.597656"/><stop stop-opacity="1" stop-color="rgb(97.827148%, 42.956543%, 10.131836%)" offset="0.609375"/><stop stop-opacity="1" stop-color="rgb(97.78595%, 42.758179%, 10.324097%)" offset="0.621094"/><stop stop-opacity="1" stop-color="rgb(97.731018%, 42.495728%, 10.58197%)" offset="0.632812"/><stop stop-opacity="1" stop-color="rgb(97.660828%, 42.166138%, 10.903931%)" offset="0.652344"/><stop stop-opacity="1" stop-color="rgb(97.592163%, 41.836548%, 11.225891%)" offset="0.671875"/><stop stop-opacity="1" stop-color="rgb(97.531128%, 41.540527%, 11.514282%)" offset="0.691406"/><stop stop-opacity="1" stop-color="rgb(97.476196%, 41.27655%, 11.772156%)" offset="0.707031"/><stop stop-opacity="1" stop-color="rgb(97.421265%, 41.012573%, 12.030029%)" offset="0.722656"/><stop stop-opacity="1" stop-color="rgb(97.364807%, 40.750122%, 12.286377%)" offset="0.738281"/><stop stop-opacity="1" stop-color="rgb(97.315979%, 40.519714%, 12.512207%)" offset="0.753906"/><stop stop-opacity="1" stop-color="rgb(97.27478%, 40.32135%, 12.704468%)" offset="0.765625"/><stop stop-opacity="1" stop-color="rgb(97.233582%, 40.124512%, 12.898254%)" offset="0.777344"/><stop stop-opacity="1" stop-color="rgb(97.192383%, 39.926147%, 13.090515%)" offset="0.789062"/><stop stop-opacity="1" stop-color="rgb(97.151184%, 39.729309%, 13.284302%)" offset="0.800781"/><stop stop-opacity="1" stop-color="rgb(97.109985%, 39.530945%, 13.476562%)" offset="0.8125"/><stop stop-opacity="1" stop-color="rgb(97.055054%, 39.268494%, 13.734436%)" offset="0.824219"/><stop stop-opacity="1" stop-color="rgb(96.986389%, 38.938904%, 14.056396%)" offset="0.84375"/><stop stop-opacity="1" stop-color="rgb(96.923828%, 38.641357%, 14.346313%)" offset="0.863281"/><stop stop-opacity="1" stop-color="rgb(96.875%, 38.41095%, 14.570618%)" offset="0.878906"/><stop stop-opacity="1" stop-color="rgb(96.833801%, 38.214111%, 14.764404%)" offset="0.890625"/><stop stop-opacity="1" stop-color="rgb(96.792603%, 38.017273%, 14.956665%)" offset="0.902344"/><stop stop-opacity="1" stop-color="rgb(96.737671%, 37.753296%, 15.214539%)" offset="0.914062"/><stop stop-opacity="1" stop-color="rgb(96.676636%, 37.457275%, 15.504456%)" offset="0.933594"/><stop stop-opacity="1" stop-color="rgb(96.627808%, 37.226868%, 15.72876%)" offset="0.949219"/><stop stop-opacity="1" stop-color="rgb(96.57135%, 36.962891%, 15.986633%)" offset="0.960938"/><stop stop-opacity="1" stop-color="rgb(96.502686%, 36.633301%, 16.307068%)" offset="0.980469"/><stop stop-opacity="1" stop-color="rgb(96.469116%, 36.468506%, 16.468811%)" offset="1"/></radialGradient><clipPath id="43d384ab94"><path d="M 40 152 L 94 152 L 94 179.945312 L 40 179.945312 Z M 40 152 " clip-rule="nonzero"/></clipPath><clipPath id="3a4d60a90c"><path d="M 3 92 L 168.703125 92 L 168.703125 171 L 3 171 Z M 3 92 " clip-rule="nonzero"/></clipPath><clipPath id="0316604629"><path d="M 5 92 L 168.703125 92 L 168.703125 167 L 5 167 Z M 5 92 " clip-rule="nonzero"/></clipPath><clipPath id="b981ae1ac0"><path d="M 89 0.0546875 L 140 0.0546875 L 140 51 L 89 51 Z M 89 0.0546875 " clip-rule="nonzero"/></clipPath><clipPath id="bda3cce06a"><path d="M 108 0.0546875 L 137 0.0546875 L 137 13 L 108 13 Z M 108 0.0546875 " clip-rule="nonzero"/></clipPath><clipPath id="6d8b64c981"><rect x="0" width="169" y="0" height="180"/></clipPath></defs><g clip-path="url(#31f445164e)"><g transform="matrix(1, 0, 0, 1, 13, -0.000000000000004843)"><g clip-path="url(#6d8b64c981)"><g clip-path="url(#a2d472be82)"><path fill="#dd2c14" d="M 32.09375 123.691406 C 32.09375 127.277344 32.433594 130.792969 33.074219 134.191406 C 34.339844 140.902344 36.800781 147.1875 40.21875 152.8125 C 50.058594 169.023438 67.867188 179.855469 88.199219 179.855469 C 89.980469 179.855469 91.742188 179.773438 93.46875 179.605469 C 97.300781 179.257812 101.003906 178.515625 104.570312 177.421875 C 109.398438 175.960938 113.957031 173.847656 118.136719 171.207031 C 124.191406 167.375 129.460938 162.417969 133.648438 156.625 C 133.9375 156.222656 134.226562 155.832031 134.496094 155.417969 C 136.164062 153 137.644531 150.421875 138.921875 147.742188 C 140.394531 144.617188 141.601562 141.332031 142.484375 137.917969 C 143.214844 135.148438 143.730469 132.292969 144.019531 129.367188 L 144.027344 129.367188 C 144.214844 127.503906 144.304688 125.605469 144.304688 123.691406 C 144.304688 121.578125 144.191406 119.496094 143.957031 117.453125 C 143.238281 110.808594 141.339844 104.519531 138.5 98.792969 C 138.5 98.78125 138.492188 98.78125 138.492188 98.78125 C 129.328125 80.265625 110.253906 67.527344 88.203125 67.527344 C 85.03125 67.527344 81.933594 67.78125 78.90625 68.296875 C 73.59375 69.183594 68.53125 70.808594 63.835938 73.078125 C 59.964844 74.953125 56.339844 77.25 53.027344 79.933594 C 52.738281 80.167969 52.449219 80.40625 52.160156 80.664062 C 49.96875 82.476562 47.917969 84.484375 46.035156 86.640625 C 45.085938 87.714844 44.183594 88.824219 43.328125 89.96875 C 42.265625 91.371094 41.277344 92.835938 40.351562 94.339844 C 36.695312 100.308594 34.113281 107.003906 32.898438 114.175781 C 32.371094 117.273438 32.09375 120.445312 32.09375 123.691406 Z M 32.09375 123.691406 " fill-opacity="1" fill-rule="nonzero"/></g><g clip-path="url(#1c49c3d58f)"><g clip-path="url(#f7c2a30ad9)"><path fill="url(#6119e9f0d4)" d="M 144.304688 67.527344 L 144.304688 168.507812 L 42.386719 168.507812 L 42.386719 67.527344 Z M 144.304688 67.527344 " fill-rule="nonzero"/></g></g><path fill="#fcb89d" d="M 63.832031 73.085938 C 67.679688 78.207031 75.269531 85.355469 85.625 90.199219 C 101.066406 97.414062 109.300781 100.503906 119.597656 107.71875 C 127.460938 113.21875 137.714844 116.917969 143.953125 117.457031 C 143.230469 110.808594 141.335938 104.523438 138.496094 98.792969 C 138.496094 98.785156 138.484375 98.785156 138.484375 98.785156 C 133.707031 96.023438 104.15625 86.078125 92.832031 78.863281 C 87.085938 75.207031 82.394531 71.28125 78.902344 68.300781 C 73.589844 69.1875 68.527344 70.816406 63.832031 73.085938 Z M 63.832031 73.085938 " fill-opacity="0.3" fill-rule="nonzero"/><path fill="#fcb89d" d="M 46.03125 86.644531 C 48.824219 90.914062 53.414062 96.085938 58.859375 101.535156 C 69.152344 111.839844 73.273438 111.839844 85.625 120.085938 C 97.976562 128.332031 97.976562 118.027344 96.949219 108.75 C 95.917969 99.472656 81.507812 101.535156 69.152344 94.320312 C 61.957031 90.117188 56.511719 84.171875 53.023438 79.933594 C 50.5 81.964844 48.164062 84.210938 46.03125 86.644531 Z M 46.03125 86.644531 " fill-opacity="0.3" fill-rule="nonzero"/><path fill="#fcb89d" d="M 110.332031 118.023438 C 110.332031 118.023438 114.449219 126.265625 128.863281 134.511719 C 137.199219 139.28125 139.679688 139.222656 142.480469 137.921875 C 143.210938 135.148438 143.726562 132.296875 144.015625 129.371094 C 137.558594 128.339844 121.65625 119.054688 110.332031 118.023438 Z M 110.332031 118.023438 " fill-opacity="0.3" fill-rule="nonzero"/><path fill="#fcb89d" d="M 40.351562 94.34375 C 40.636719 98.492188 41.421875 103.164062 43.417969 105.65625 C 47.535156 110.808594 48.566406 119.054688 66.066406 132.449219 C 83.5625 145.847656 87.683594 137.601562 99.007812 144.816406 C 109.363281 151.410156 121.429688 154.566406 133.648438 156.625 C 135.667969 153.851562 137.425781 150.875 138.917969 147.742188 C 138.148438 146.898438 137.46875 146.21875 137.097656 145.847656 C 135.039062 143.789062 117.539062 139.664062 107.242188 137.601562 C 96.949219 135.542969 75.332031 120.085938 64.007812 111.839844 C 55.8125 105.875 47.617188 95.589844 43.328125 89.972656 C 42.265625 91.375 41.277344 92.835938 40.351562 94.34375 Z M 40.351562 94.34375 " fill-opacity="0.3" fill-rule="nonzero"/><path fill="#fcb89d" d="M 32.09375 123.691406 C 32.09375 127.277344 32.433594 130.792969 33.074219 134.191406 C 36.203125 137.179688 41.421875 139.003906 47.539062 141.722656 C 56.804688 145.84375 55.773438 148.9375 64.007812 155.121094 C 72.246094 161.304688 71.214844 165.425781 83.570312 167.484375 C 92.917969 169.042969 98.734375 174.144531 104.570312 177.421875 C 109.398438 175.957031 113.957031 173.84375 118.136719 171.207031 C 116.40625 169.402344 113.90625 167.414062 110.332031 165.425781 C 101.066406 160.273438 87.6875 156.148438 80.476562 155.121094 C 73.273438 154.089844 60.917969 141.722656 56.800781 134.511719 C 52.683594 127.296875 46.507812 120.082031 40.332031 118.023438 C 37.261719 117 34.699219 115.464844 32.898438 114.179688 C 32.371094 117.273438 32.09375 120.445312 32.09375 123.691406 Z M 32.09375 123.691406 " fill-opacity="0.3" fill-rule="nonzero"/><g clip-path="url(#43d384ab94)"><path fill="#fcb89d" d="M 40.21875 152.8125 C 50.058594 169.023438 67.867188 179.855469 88.199219 179.855469 C 89.980469 179.855469 91.742188 179.773438 93.46875 179.605469 C 92.65625 176.699219 83.289062 175.515625 73.273438 167.488281 C 62.976562 159.246094 49.597656 158.214844 40.21875 152.8125 Z M 40.21875 152.8125 " fill-opacity="0.3" fill-rule="nonzero"/></g><g clip-path="url(#3a4d60a90c)"><path fill="#8eb4f4" d="M 79.636719 146.671875 C 125.125 166.410156 164.925781 175.679688 168.519531 167.367188 C 168.773438 166.78125 168.839844 166.132812 168.730469 165.414062 C 168.164062 161.589844 162.605469 155.914062 153.417969 149.308594 C 152.542969 148.679688 151.632812 148.042969 150.683594 147.394531 C 151.4375 148.230469 152.015625 149 152.351562 149.683594 C 152.816406 150.566406 152.925781 151.324219 152.664062 151.9375 C 150.328125 157.328125 119.648438 149.199219 84.152344 133.800781 C 48.652344 118.386719 21.765625 101.527344 24.101562 96.144531 C 24.394531 95.480469 25.113281 95.011719 26.234375 94.75 C 26.550781 94.667969 26.898438 94.613281 27.269531 94.566406 C 26.859375 94.484375 26.453125 94.402344 26.039062 94.328125 C 15.960938 92.429688 8.660156 92.277344 5.40625 94.175781 C 4.632812 94.621094 4.085938 95.1875 3.792969 95.871094 C 0.191406 104.1875 34.148438 126.929688 79.636719 146.671875 Z M 79.636719 146.671875 " fill-opacity="1" fill-rule="nonzero"/></g><g clip-path="url(#0316604629)"><path fill="#7b8fc7" d="M 5.402344 94.175781 C 6.835938 103.710938 39.160156 124.660156 81.460938 143.027344 C 123.195312 161.128906 160.144531 170.421875 168.726562 165.414062 C 168.164062 161.59375 162.605469 155.917969 153.414062 149.3125 C 153.113281 149.46875 152.761719 149.585938 152.347656 149.6875 C 152.8125 150.570312 152.921875 151.328125 152.660156 151.9375 C 150.328125 157.332031 119.648438 149.203125 84.148438 133.800781 C 48.652344 118.390625 21.765625 101.53125 24.097656 96.148438 C 24.390625 95.480469 25.109375 95.015625 26.230469 94.75 C 26.148438 94.605469 26.082031 94.46875 26.039062 94.332031 C 15.960938 92.433594 8.660156 92.277344 5.402344 94.175781 Z M 5.402344 94.175781 " fill-opacity="1" fill-rule="nonzero"/></g><path fill="#c69297" d="M 81.273438 71.980469 C 82.71875 74.878906 87.207031 77.199219 89.957031 76.183594 C 92.707031 75.171875 95.699219 42.054688 95.699219 42.054688 C 95.699219 42.054688 87.5 40.699219 83.789062 43.902344 C 83.429688 44.210938 83.109375 44.566406 82.847656 44.964844 C 82.6875 45.210938 82.546875 45.46875 82.429688 45.75 C 80.113281 51.253906 79.824219 69.082031 81.273438 71.980469 Z M 81.273438 71.980469 " fill-opacity="1" fill-rule="nonzero"/><path fill="#f9e6ce" d="M 81.417969 71.835938 C 82.863281 74.734375 87.351562 77.054688 90.101562 76.039062 C 92.851562 75.027344 95.84375 41.910156 95.84375 41.910156 C 95.84375 41.910156 87.640625 40.554688 83.933594 43.757812 C 83.570312 44.070312 83.253906 44.421875 82.992188 44.820312 C 82.828125 45.066406 82.691406 45.328125 82.574219 45.605469 C 80.257812 51.113281 79.96875 68.9375 81.417969 71.835938 Z M 81.417969 71.835938 " fill-opacity="1" fill-rule="nonzero"/><path fill="#dfbeb5" d="M 100.765625 43.355469 C 100.765625 43.355469 89.8125 41.546875 87.496094 47.050781 C 85.179688 52.558594 84.890625 70.386719 86.335938 73.28125 C 87.785156 76.179688 92.273438 78.5 95.023438 77.484375 C 97.773438 76.472656 100.765625 43.355469 100.765625 43.355469 Z M 100.765625 43.355469 " fill-opacity="1" fill-rule="nonzero"/><path fill="#dfbeb5" d="M 79.683594 67.355469 L 83.683594 67.535156 C 83.753906 67.539062 83.824219 67.535156 83.894531 67.527344 C 84.527344 67.453125 85.03125 66.929688 85.058594 66.277344 L 85.332031 60.234375 C 85.363281 59.511719 84.796875 58.890625 84.070312 58.855469 L 80.074219 58.675781 C 79.460938 58.648438 78.921875 59.050781 78.75 59.613281 C 78.71875 59.714844 78.703125 59.824219 78.695312 59.9375 L 78.425781 65.976562 C 78.394531 66.703125 78.960938 67.324219 79.683594 67.355469 Z M 79.683594 67.355469 " fill-opacity="1" fill-rule="nonzero"/><path fill="#f9e6ce" d="M 79.683594 67.355469 L 83.683594 67.535156 C 83.753906 67.539062 83.824219 67.535156 83.894531 67.527344 C 83.925781 67.425781 83.945312 67.316406 83.949219 67.203125 L 84.222656 61.164062 C 84.253906 60.4375 83.6875 59.820312 82.960938 59.785156 L 78.964844 59.605469 C 78.894531 59.601562 78.820312 59.605469 78.75 59.613281 C 78.71875 59.714844 78.703125 59.824219 78.695312 59.9375 L 78.425781 65.976562 C 78.394531 66.703125 78.960938 67.324219 79.683594 67.355469 Z M 79.683594 67.355469 " fill-opacity="1" fill-rule="nonzero"/><path fill="#c69297" d="M 87.921875 72.59375 C 87.941406 72.746094 87.960938 72.90625 87.984375 73.054688 C 88.246094 74.734375 88.722656 76.183594 89.351562 77.433594 C 91.722656 82.175781 96.210938 84.078125 98.929688 85.207031 C 104.867188 87.667969 102.695312 92.742188 101.898438 99.042969 C 101.632812 101.140625 106.972656 107.726562 112.320312 108.75 C 113.394531 108.957031 114.476562 108.9375 115.507812 108.609375 C 115.910156 108.480469 116.199219 108.179688 116.488281 107.964844 C 120.902344 104.707031 116.863281 101.527344 115.507812 99.625 C 115.28125 99.308594 115.113281 98.996094 114.988281 98.699219 C 114.917969 98.535156 114.863281 98.375 114.820312 98.222656 C 114.582031 97.378906 114.675781 96.679688 114.785156 96.265625 C 114.804688 96.195312 114.824219 96.136719 114.839844 96.082031 C 114.886719 95.9375 114.925781 95.855469 114.925781 95.855469 C 114.925781 96.003906 115.015625 96.203125 115.183594 96.445312 C 116.324219 98.074219 121.09375 101.480469 125.453125 101.9375 C 126.023438 101.996094 126.585938 102.007812 127.128906 101.953125 C 127.167969 101.949219 127.199219 101.949219 127.230469 101.945312 C 127.316406 101.9375 127.398438 101.925781 127.480469 101.914062 C 127.550781 101.90625 127.617188 101.894531 127.6875 101.882812 C 127.839844 101.855469 127.980469 101.824219 128.117188 101.789062 C 128.148438 101.78125 128.179688 101.773438 128.207031 101.761719 C 128.210938 101.761719 128.214844 101.761719 128.21875 101.761719 C 128.269531 101.746094 128.316406 101.730469 128.363281 101.71875 C 128.390625 101.710938 128.414062 101.703125 128.4375 101.695312 C 128.480469 101.679688 128.523438 101.664062 128.566406 101.648438 C 128.617188 101.632812 128.664062 101.613281 128.710938 101.597656 C 128.722656 101.589844 128.730469 101.589844 128.742188 101.582031 C 128.757812 101.574219 128.773438 101.566406 128.792969 101.5625 C 128.839844 101.542969 128.886719 101.519531 128.933594 101.5 C 128.976562 101.480469 129.019531 101.460938 129.058594 101.4375 C 129.089844 101.421875 129.121094 101.40625 129.148438 101.386719 C 129.179688 101.375 129.203125 101.359375 129.230469 101.339844 C 129.277344 101.316406 129.320312 101.289062 129.367188 101.257812 C 129.417969 101.222656 129.472656 101.191406 129.519531 101.152344 C 129.570312 101.113281 129.617188 101.078125 129.667969 101.039062 C 129.710938 101 129.757812 100.960938 129.800781 100.917969 C 129.84375 100.878906 129.886719 100.835938 129.929688 100.796875 C 129.980469 100.746094 130.027344 100.6875 130.074219 100.632812 C 130.089844 100.617188 130.101562 100.601562 130.113281 100.582031 C 130.125 100.566406 130.140625 100.550781 130.152344 100.535156 C 130.148438 100.535156 130.148438 100.535156 130.148438 100.535156 C 131.648438 98.578125 130.566406 96.007812 129.90625 94.628906 C 129.113281 92.960938 127.738281 92.164062 126.867188 91.441406 C 126.746094 91.335938 126.648438 91.238281 126.582031 91.148438 C 126.433594 90.964844 126.386719 90.816406 126.371094 90.726562 C 126.355469 90.675781 126.363281 90.644531 126.363281 90.644531 C 126.386719 90.589844 126.414062 90.535156 126.4375 90.480469 C 132.964844 76.566406 125.484375 74.261719 123.757812 73.25 C 122.019531 72.238281 121.078125 69.988281 122.527344 63.757812 C 123.972656 57.527344 120.355469 48.398438 120.355469 48.398438 L 98.667969 43.554688 L 96.578125 43.085938 C 96.578125 43.085938 95.203125 43.539062 92.0625 52.308594 C 92.050781 52.339844 92.035156 52.375 92.027344 52.410156 C 91.230469 54.632812 90.324219 57.382812 89.300781 60.785156 C 87.847656 65.636719 87.523438 69.496094 87.921875 72.59375 Z M 87.921875 72.59375 " fill-opacity="1" fill-rule="nonzero"/><path fill="#f9e6ce" d="M 88.210938 72.300781 C 88.230469 72.457031 88.25 72.613281 88.273438 72.761719 C 88.535156 74.445312 89.015625 75.894531 89.640625 77.144531 C 92.011719 81.882812 96.503906 83.789062 99.222656 84.914062 C 105.15625 87.378906 102.984375 92.453125 102.1875 98.753906 C 101.925781 100.851562 107.265625 107.433594 112.609375 108.460938 C 113.6875 108.667969 114.765625 108.648438 115.796875 108.316406 C 116.203125 108.1875 116.488281 107.890625 116.777344 107.675781 C 121.191406 104.414062 117.15625 101.234375 115.796875 99.332031 C 115.570312 99.015625 115.402344 98.703125 115.277344 98.410156 C 115.207031 98.246094 115.152344 98.085938 115.109375 97.929688 C 114.871094 97.089844 114.964844 96.390625 115.074219 95.976562 C 115.09375 95.90625 115.113281 95.84375 115.128906 95.789062 C 115.179688 95.644531 115.21875 95.566406 115.21875 95.566406 C 115.21875 95.714844 115.308594 95.914062 115.472656 96.152344 C 116.617188 97.785156 121.382812 101.191406 125.746094 101.644531 C 126.3125 101.707031 126.875 101.71875 127.421875 101.664062 C 127.457031 101.660156 127.488281 101.65625 127.519531 101.65625 C 127.605469 101.648438 127.6875 101.632812 127.769531 101.625 C 127.839844 101.613281 127.910156 101.605469 127.976562 101.589844 C 128.128906 101.566406 128.269531 101.53125 128.40625 101.5 C 128.4375 101.492188 128.46875 101.484375 128.496094 101.472656 C 128.503906 101.472656 128.503906 101.46875 128.507812 101.46875 C 128.558594 101.457031 128.609375 101.441406 128.652344 101.425781 C 128.679688 101.417969 128.703125 101.410156 128.726562 101.402344 C 128.769531 101.386719 128.8125 101.375 128.855469 101.359375 C 128.90625 101.339844 128.953125 101.324219 129 101.304688 C 129.015625 101.300781 129.023438 101.296875 129.03125 101.292969 C 129.050781 101.285156 129.066406 101.277344 129.082031 101.273438 C 129.132812 101.25 129.179688 101.230469 129.222656 101.210938 C 129.265625 101.191406 129.308594 101.167969 129.347656 101.144531 C 129.378906 101.128906 129.410156 101.113281 129.441406 101.097656 C 129.46875 101.085938 129.496094 101.070312 129.523438 101.050781 C 129.570312 101.023438 129.613281 101 129.65625 100.96875 C 129.710938 100.933594 129.761719 100.898438 129.808594 100.859375 C 129.863281 100.824219 129.90625 100.785156 129.957031 100.746094 C 130.003906 100.707031 130.046875 100.671875 130.089844 100.628906 C 130.132812 100.585938 130.179688 100.546875 130.21875 100.503906 C 130.269531 100.453125 130.320312 100.398438 130.367188 100.339844 C 130.378906 100.324219 130.390625 100.308594 130.402344 100.292969 C 130.417969 100.273438 130.429688 100.257812 130.441406 100.242188 C 131.9375 98.289062 130.855469 95.714844 130.199219 94.335938 C 129.402344 92.671875 128.027344 91.871094 127.160156 91.148438 C 127.035156 91.046875 126.941406 90.949219 126.871094 90.859375 C 126.722656 90.675781 126.675781 90.523438 126.660156 90.4375 C 126.648438 90.382812 126.652344 90.351562 126.652344 90.351562 C 126.679688 90.296875 126.703125 90.246094 126.726562 90.191406 C 133.253906 76.277344 125.777344 73.972656 124.046875 72.960938 C 122.308594 71.949219 121.371094 69.699219 122.816406 63.46875 C 123.269531 61.515625 123.222656 59.277344 122.953125 57.128906 C 122.425781 53.007812 121.058594 49.199219 120.71875 48.304688 C 120.671875 48.175781 120.644531 48.105469 120.644531 48.105469 L 98.960938 43.261719 L 96.867188 42.796875 C 96.867188 42.796875 95.492188 43.246094 92.351562 52.015625 C 92.339844 52.050781 92.328125 52.082031 92.316406 52.121094 C 91.523438 54.34375 90.617188 57.09375 89.59375 60.496094 C 88.136719 65.34375 87.8125 69.207031 88.210938 72.300781 Z M 88.210938 72.300781 " fill-opacity="1" fill-rule="nonzero"/><path fill="#fcf0e3" d="M 120.722656 48.300781 C 120.992188 50.871094 121.472656 54.839844 121.953125 55.894531 C 122.1875 56.40625 122.550781 56.8125 122.957031 57.125 C 122.429688 53.003906 121.0625 49.195312 120.722656 48.300781 Z M 120.722656 48.300781 " fill-opacity="1" fill-rule="nonzero"/><path fill="#dfbeb5" d="M 88.210938 72.300781 C 88.230469 72.457031 88.25 72.613281 88.273438 72.761719 C 89.746094 74.335938 92.839844 75.023438 96.761719 73.429688 C 101.394531 71.546875 120.792969 70.964844 120.792969 70.964844 C 120.792969 70.964844 121.226562 62.992188 121.160156 59.472656 C 121.089844 55.953125 119.882812 50.566406 119.882812 50.566406 L 119.761719 50.53125 L 102.8125 45.605469 L 100.113281 44.820312 C 100.113281 44.820312 95.378906 48.882812 92.320312 52.117188 C 91.523438 54.339844 90.617188 57.089844 89.59375 60.492188 C 88.136719 65.34375 87.8125 69.207031 88.210938 72.300781 Z M 88.210938 72.300781 " fill-opacity="1" fill-rule="nonzero"/><path fill="#f9e6ce" d="M 106.027344 61.691406 C 108.777344 62.304688 116.617188 63.707031 119.460938 59.285156 C 120.617188 57.484375 120.949219 54.714844 119.765625 50.53125 L 104.125 45.988281 L 102.820312 45.605469 C 100.757812 48.988281 98.15625 53.65625 98.070312 55.746094 C 97.921875 59.226562 102.121094 60.820312 106.027344 61.691406 Z M 106.027344 61.691406 " fill-opacity="1" fill-rule="nonzero"/><path fill="#fcf0e3" d="M 108.921875 59.371094 C 110.988281 59.832031 115.925781 60.734375 119.457031 59.285156 C 120.617188 57.484375 120.945312 54.714844 119.761719 50.53125 L 104.121094 45.988281 C 102.511719 48.828125 101.023438 51.859375 100.960938 53.429688 C 100.816406 56.910156 105.011719 58.5 108.921875 59.371094 Z M 108.921875 59.371094 " fill-opacity="1" fill-rule="nonzero"/><path fill="#dfbeb5" d="M 115.40625 95.957031 C 115.445312 96.03125 115.492188 96.109375 115.550781 96.191406 C 116.691406 97.824219 121.460938 101.226562 125.820312 101.683594 C 126.503906 101.726562 127.085938 101.734375 127.496094 101.703125 C 127.53125 101.699219 127.566406 101.695312 127.59375 101.695312 C 127.679688 101.6875 127.761719 101.671875 127.84375 101.664062 C 127.914062 101.652344 127.984375 101.640625 128.054688 101.628906 C 128.203125 101.605469 128.347656 101.570312 128.480469 101.535156 C 128.511719 101.527344 128.542969 101.519531 128.570312 101.511719 C 128.578125 101.511719 128.578125 101.507812 128.582031 101.507812 C 128.632812 101.496094 128.683594 101.480469 128.730469 101.464844 C 128.753906 101.457031 128.777344 101.449219 128.800781 101.441406 C 128.84375 101.425781 128.886719 101.414062 128.929688 101.398438 C 128.980469 101.378906 129.027344 101.363281 129.074219 101.34375 C 129.089844 101.339844 129.097656 101.335938 129.105469 101.332031 C 129.125 101.324219 129.140625 101.316406 129.15625 101.308594 C 129.207031 101.289062 129.253906 101.269531 129.300781 101.25 C 129.34375 101.226562 129.382812 101.207031 129.421875 101.183594 C 129.453125 101.167969 129.484375 101.152344 129.515625 101.136719 C 129.542969 101.121094 129.570312 101.105469 129.597656 101.089844 C 129.644531 101.0625 129.6875 101.039062 129.730469 101.007812 C 129.785156 100.972656 129.835938 100.9375 129.886719 100.898438 C 129.9375 100.863281 129.984375 100.824219 130.03125 100.785156 C 130.078125 100.746094 130.121094 100.707031 130.164062 100.667969 C 130.207031 100.625 130.253906 100.585938 130.292969 100.542969 C 130.375 100.460938 130.449219 100.375 130.515625 100.285156 C 125.867188 100.445312 120.546875 99.34375 118.183594 96.1875 C 116.878906 94.449219 116.832031 94.050781 115.859375 92.808594 C 115.609375 93.933594 115.40625 95.101562 115.40625 95.957031 Z M 115.40625 95.957031 " fill-opacity="1" fill-rule="nonzero"/><path fill="#fcfcc3" d="M 131.363281 53.140625 L 131.09375 54.894531 L 120.4375 59.804688 L 107.765625 55.191406 L 108.328125 53.28125 C 108.328125 53.28125 115.585938 55.457031 120.210938 58.28125 C 120.210938 58.285156 124.992188 54.589844 131.363281 53.140625 Z M 131.363281 53.140625 " fill-opacity="1" fill-rule="nonzero"/><path fill="#d8d4a8" d="M 131.363281 53.574219 L 131.09375 55.332031 L 120.4375 60.242188 L 107.765625 55.625 L 108.328125 53.71875 C 108.328125 53.71875 115.585938 55.890625 120.210938 58.71875 C 120.210938 58.71875 124.992188 55.023438 131.363281 53.574219 Z M 131.363281 53.574219 " fill-opacity="1" fill-rule="nonzero"/><path fill="#ef5463" d="M 100.238281 72.996094 C 105.804688 71.730469 112.589844 75 114.210938 75.84375 C 114.257812 75.871094 114.300781 75.894531 114.339844 75.914062 C 114.488281 75.992188 114.570312 76.039062 114.570312 76.039062 L 115.707031 75.597656 L 115.875 75.53125 L 125.425781 71.835938 L 126.316406 69.226562 L 131.652344 53.574219 L 120.761719 58.402344 L 120.589844 58.480469 L 120.214844 58.644531 L 119.511719 58.402344 L 119.371094 58.355469 L 107.183594 54.152344 L 105.785156 57.863281 L 103.855469 62.992188 Z M 100.238281 72.996094 " fill-opacity="1" fill-rule="nonzero"/><path fill="#c69297" d="M 98.128906 70.484375 C 98.324219 70.472656 98.464844 70.316406 98.570312 70.054688 C 98.816406 69.449219 98.898438 68.265625 99.148438 66.902344 C 99.507812 64.929688 100.226562 62.582031 102.304688 61.039062 C 102.304688 61.039062 100.859375 60.996094 97.855469 59.609375 C 94.855469 58.21875 94.246094 59.214844 97.140625 54.222656 C 102.097656 45.664062 98.75 45.566406 94.804688 43.34375 C 94.78125 43.332031 94.753906 43.316406 94.730469 43.300781 C 94.71875 43.292969 94.707031 43.285156 94.695312 43.28125 C 94.695312 43.28125 87.09375 50.894531 85.691406 59.554688 C 84.289062 68.210938 96.824219 70.59375 98.128906 70.484375 Z M 98.128906 70.484375 " fill-opacity="1" fill-rule="nonzero"/><path fill="#dfbeb5" d="M 98.570312 70.054688 C 98.816406 69.449219 98.898438 68.265625 99.148438 66.902344 C 99.507812 64.929688 100.226562 62.582031 102.304688 61.039062 C 102.304688 61.039062 100.859375 60.996094 97.855469 59.609375 C 94.855469 58.21875 94.246094 59.214844 97.140625 54.222656 C 102.097656 45.664062 98.75 45.566406 94.804688 43.34375 C 93.121094 45.167969 87.460938 51.765625 86.269531 59.117188 C 84.910156 67.53125 96.707031 70.019531 98.570312 70.054688 Z M 98.570312 70.054688 " fill-opacity="1" fill-rule="nonzero"/><path fill="#f9e6ce" d="M 99.152344 66.902344 C 99.28125 66.175781 99.464844 65.398438 99.746094 64.628906 C 100.222656 63.308594 100.996094 62.011719 102.308594 61.039062 C 102.308594 61.039062 100.859375 60.996094 97.859375 59.609375 C 94.859375 58.21875 94.25 59.214844 97.140625 54.222656 C 101.535156 46.636719 99.40625 45.699219 96.121094 44.035156 C 95.675781 43.8125 95.210938 43.570312 94.734375 43.300781 C 92.421875 46.332031 89.421875 51.089844 88.589844 56.21875 C 87.460938 63.179688 95.339844 66.085938 99.152344 66.902344 Z M 99.152344 66.902344 " fill-opacity="1" fill-rule="nonzero"/><path fill="#fcf0e3" d="M 99.746094 64.625 C 100.222656 63.308594 100.996094 62.011719 102.308594 61.035156 C 102.308594 61.035156 100.859375 60.996094 97.859375 59.605469 C 94.859375 58.214844 94.25 59.210938 97.140625 54.21875 C 101.535156 46.636719 99.40625 45.695312 96.121094 44.03125 C 94.207031 46.925781 92.273438 50.664062 91.628906 54.621094 C 90.707031 60.296875 95.777344 63.277344 99.746094 64.625 Z M 99.746094 64.625 " fill-opacity="1" fill-rule="nonzero"/><path fill="#e52972" d="M 95.269531 41.382812 C 94.898438 42.03125 94.414062 42.976562 94.65625 43.996094 C 95.421875 47.226562 105.703125 50.699219 107.097656 51.070312 C 114.625 53.070312 118.3125 51.839844 122.613281 49.582031 C 119.785156 49.703125 116.339844 49.46875 112.453125 48.828125 C 106.792969 47.894531 99.957031 45.84375 95.269531 41.382812 Z M 95.269531 41.382812 " fill-opacity="1" fill-rule="nonzero"/><path fill="#fc357b" d="M 95.558594 40.949219 C 95.191406 41.597656 94.703125 42.542969 94.945312 43.5625 C 95.714844 46.789062 105.992188 50.265625 107.386719 50.636719 C 114.914062 52.632812 118.601562 51.40625 122.902344 49.148438 C 120.074219 49.269531 116.628906 49.035156 112.746094 48.394531 C 107.082031 47.457031 100.242188 45.410156 95.558594 40.949219 Z M 95.558594 40.949219 " fill-opacity="1" fill-rule="nonzero"/><g clip-path="url(#b981ae1ac0)"><path fill="#c69297" d="M 89.160156 25.425781 C 89.160156 29.46875 90.121094 33.292969 91.828125 36.671875 C 91.828125 36.671875 91.832031 36.671875 91.832031 36.675781 C 94.625 42.199219 99.410156 46.546875 105.238281 48.765625 C 105.242188 48.769531 105.246094 48.769531 105.25 48.769531 C 108 49.816406 110.984375 50.386719 114.101562 50.386719 C 127.414062 50.386719 138.292969 39.9375 139 26.785156 C 139.023438 26.335938 139.035156 25.878906 139.035156 25.425781 C 139.035156 24.824219 139.015625 24.230469 138.972656 23.644531 C 138.0625 10.6875 127.273438 0.460938 114.097656 0.460938 C 100.328125 0.460938 89.160156 11.636719 89.160156 25.425781 Z M 89.160156 25.425781 " fill-opacity="1" fill-rule="nonzero"/><path fill="#f9e6ce" d="M 89.59375 25.132812 C 89.59375 29.179688 90.554688 33.003906 92.261719 36.378906 C 92.261719 36.382812 92.265625 36.382812 92.265625 36.386719 C 95.058594 41.910156 99.84375 46.253906 105.671875 48.476562 C 105.675781 48.476562 105.679688 48.476562 105.683594 48.476562 C 108.433594 49.523438 111.417969 50.09375 114.535156 50.09375 C 127.851562 50.09375 138.726562 39.648438 139.433594 26.496094 C 139.460938 26.042969 139.46875 25.589844 139.46875 25.132812 C 139.46875 24.535156 139.449219 23.941406 139.40625 23.355469 C 139.128906 19.433594 137.949219 15.765625 136.074219 12.550781 C 131.75 5.144531 123.722656 0.171875 114.535156 0.171875 C 112.519531 0.171875 110.558594 0.410156 108.683594 0.863281 C 97.730469 3.496094 89.59375 13.363281 89.59375 25.132812 Z M 89.59375 25.132812 " fill-opacity="1" fill-rule="nonzero"/></g><path fill="#dfbeb5" d="M 91.332031 30.097656 C 91.332031 32.277344 91.65625 34.386719 92.261719 36.382812 C 92.261719 36.386719 92.265625 36.386719 92.265625 36.386719 C 95.058594 41.914062 99.84375 46.257812 105.671875 48.476562 C 97.789062 44.761719 92.347656 36.890625 92.347656 27.78125 C 92.347656 25.289062 92.753906 22.894531 93.507812 20.644531 C 92.109375 23.527344 91.332031 26.726562 91.332031 30.097656 Z M 91.332031 30.097656 " fill-opacity="1" fill-rule="nonzero"/><path fill="#033d75" d="M 93.359375 20.644531 C 92.609375 22.890625 92.199219 25.289062 92.199219 27.78125 C 92.199219 36.890625 97.640625 44.761719 105.527344 48.476562 C 105.53125 48.480469 105.535156 48.480469 105.539062 48.480469 C 108.628906 49.9375 112.097656 50.75 115.761719 50.75 C 128.773438 50.75 139.324219 40.46875 139.324219 27.78125 C 139.324219 27.351562 139.308594 26.921875 139.289062 26.496094 C 139.171875 24.464844 138.785156 22.503906 138.164062 20.648438 C 138.164062 20.644531 138.160156 20.644531 138.160156 20.644531 C 134.308594 12.671875 125.726562 7.128906 115.757812 7.128906 C 105.792969 7.128906 97.214844 12.671875 93.359375 20.644531 C 93.363281 20.640625 93.359375 20.640625 93.359375 20.644531 Z M 93.359375 20.644531 " fill-opacity="1" fill-rule="nonzero"/><path fill="#22457c" d="M 97.5625 21.664062 C 96.902344 23.632812 96.546875 25.734375 96.546875 27.921875 C 96.546875 35.914062 101.316406 42.816406 108.234375 46.074219 C 108.238281 46.074219 108.242188 46.078125 108.242188 46.078125 C 110.953125 47.351562 113.996094 48.070312 117.210938 48.070312 C 128.625 48.070312 137.875 39.050781 137.875 27.921875 C 137.875 27.542969 137.867188 27.167969 137.847656 26.796875 C 137.746094 25.011719 137.40625 23.292969 136.863281 21.664062 C 133.484375 14.671875 125.953125 9.808594 117.214844 9.808594 C 108.476562 9.808594 100.941406 14.671875 97.5625 21.664062 Z M 97.5625 21.664062 " fill-opacity="1" fill-rule="nonzero"/><path fill="#dfbeb5" d="M 93.507812 20.640625 C 97.359375 12.671875 105.945312 7.128906 115.910156 7.128906 C 123.660156 7.128906 130.570312 10.480469 135.074219 15.71875 C 136.5625 17.269531 137.886719 18.945312 139.035156 20.640625 C 135.910156 11.449219 126.894531 4.808594 116.269531 4.808594 C 105.644531 4.808594 96.632812 11.453125 93.507812 20.640625 Z M 93.507812 20.640625 " fill-opacity="1" fill-rule="nonzero"/><path fill="#c69297" d="M 90.199219 26.640625 C 90.386719 26.6875 90.578125 26.71875 90.765625 26.734375 C 93.25 26.933594 95.808594 24.535156 96.660156 21.070312 C 97.582031 17.34375 96.179688 13.785156 93.53125 13.132812 C 93.152344 13.039062 92.769531 13.011719 92.386719 13.042969 C 90.097656 13.21875 87.859375 15.503906 87.070312 18.703125 C 86.148438 22.433594 87.550781 25.988281 90.199219 26.640625 Z M 90.199219 26.640625 " fill-opacity="1" fill-rule="nonzero"/><path fill="#dfbeb5" d="M 90.199219 26.640625 C 90.386719 26.6875 90.578125 26.71875 90.765625 26.734375 C 93.058594 26.554688 95.292969 24.269531 96.082031 21.070312 C 97.003906 17.34375 95.601562 13.785156 92.953125 13.132812 C 92.765625 13.085938 92.578125 13.054688 92.386719 13.042969 C 90.097656 13.21875 87.859375 15.503906 87.070312 18.703125 C 86.148438 22.433594 87.550781 25.988281 90.199219 26.640625 Z M 90.199219 26.640625 " fill-opacity="1" fill-rule="nonzero"/><path fill="#f9e6ce" d="M 87.09375 18.664062 C 87.003906 19.039062 86.933594 19.417969 86.886719 19.800781 C 86.84375 20.183594 86.824219 20.558594 86.828125 20.929688 C 86.832031 21.300781 86.863281 21.660156 86.917969 22.007812 C 86.972656 22.351562 87.050781 22.679688 87.152344 22.988281 C 87.253906 23.296875 87.375 23.578125 87.523438 23.839844 C 87.667969 24.097656 87.832031 24.324219 88.015625 24.523438 C 88.199219 24.722656 88.398438 24.886719 88.613281 25.019531 C 88.828125 25.148438 89.054688 25.246094 89.292969 25.304688 C 89.527344 25.363281 89.773438 25.382812 90.023438 25.367188 C 90.273438 25.351562 90.527344 25.296875 90.78125 25.207031 C 91.039062 25.117188 91.289062 24.992188 91.539062 24.832031 C 91.789062 24.671875 92.027344 24.476562 92.261719 24.253906 C 92.496094 24.027344 92.71875 23.773438 92.925781 23.492188 C 93.136719 23.210938 93.328125 22.910156 93.507812 22.582031 C 93.683594 22.257812 93.839844 21.914062 93.976562 21.554688 C 94.117188 21.195312 94.230469 20.828125 94.324219 20.453125 C 94.417969 20.074219 94.488281 19.695312 94.53125 19.3125 C 94.578125 18.929688 94.597656 18.554688 94.59375 18.183594 C 94.585938 17.8125 94.558594 17.453125 94.503906 17.109375 C 94.449219 16.761719 94.371094 16.433594 94.269531 16.125 C 94.167969 15.816406 94.042969 15.535156 93.898438 15.277344 C 93.75 15.019531 93.585938 14.789062 93.402344 14.589844 C 93.21875 14.390625 93.019531 14.226562 92.804688 14.097656 C 92.589844 13.964844 92.367188 13.871094 92.128906 13.8125 C 91.890625 13.753906 91.648438 13.730469 91.394531 13.746094 C 91.144531 13.761719 90.890625 13.816406 90.636719 13.90625 C 90.382812 13.996094 90.128906 14.121094 89.882812 14.28125 C 89.632812 14.445312 89.390625 14.636719 89.15625 14.863281 C 88.921875 15.085938 88.703125 15.339844 88.492188 15.621094 C 88.28125 15.902344 88.089844 16.207031 87.914062 16.53125 C 87.734375 16.859375 87.578125 17.199219 87.441406 17.558594 C 87.304688 17.917969 87.1875 18.285156 87.09375 18.664062 Z M 87.09375 18.664062 " fill-opacity="1" fill-rule="nonzero"/><path fill="#dfbeb5" d="M 88.738281 19.070312 C 88.636719 19.484375 88.589844 19.898438 88.59375 20.304688 C 88.597656 20.714844 88.65625 21.085938 88.769531 21.425781 C 88.882812 21.765625 89.039062 22.046875 89.242188 22.265625 C 89.445312 22.480469 89.675781 22.625 89.9375 22.6875 C 90.199219 22.753906 90.46875 22.734375 90.75 22.636719 C 91.03125 22.539062 91.300781 22.363281 91.558594 22.117188 C 91.8125 21.867188 92.039062 21.566406 92.234375 21.207031 C 92.429688 20.847656 92.578125 20.460938 92.679688 20.042969 C 92.78125 19.628906 92.832031 19.21875 92.828125 18.808594 C 92.820312 18.402344 92.761719 18.027344 92.648438 17.6875 C 92.539062 17.347656 92.378906 17.070312 92.179688 16.851562 C 91.976562 16.632812 91.746094 16.492188 91.484375 16.425781 C 91.222656 16.359375 90.949219 16.378906 90.667969 16.476562 C 90.390625 16.578125 90.121094 16.75 89.863281 17 C 89.605469 17.246094 89.378906 17.550781 89.183594 17.910156 C 88.992188 18.265625 88.839844 18.65625 88.738281 19.070312 Z M 88.738281 19.070312 " fill-opacity="1" fill-rule="nonzero"/><path fill="#c69297" d="M 138.167969 18.722656 C 136.417969 14.847656 133.609375 11.453125 130.15625 8.933594 L 129.5 8.476562 L 129.335938 8.359375 L 129.164062 8.253906 L 128.828125 8.039062 L 128.484375 7.828125 C 128.371094 7.757812 128.253906 7.691406 128.136719 7.628906 L 127.433594 7.246094 C 127.203125 7.113281 126.957031 7.007812 126.714844 6.890625 C 126.472656 6.777344 126.230469 6.660156 125.988281 6.550781 L 125.242188 6.253906 L 124.867188 6.105469 C 124.746094 6.050781 124.617188 6.015625 124.488281 5.972656 C 122.464844 5.265625 120.347656 4.851562 118.214844 4.710938 C 116.078125 4.582031 113.933594 4.734375 111.828125 5.078125 L 111.039062 5.214844 C 110.777344 5.261719 110.511719 5.304688 110.25 5.367188 C 109.726562 5.488281 109.207031 5.648438 108.707031 5.839844 C 107.707031 6.214844 106.730469 6.652344 105.78125 7.140625 C 104.832031 7.625 103.90625 8.160156 103.007812 8.734375 C 102.785156 8.882812 102.566406 9.035156 102.347656 9.183594 C 102.234375 9.257812 102.125 9.328125 102.015625 9.410156 L 101.695312 9.644531 C 101.484375 9.804688 101.265625 9.957031 101.054688 10.125 L 100.429688 10.625 C 100.222656 10.789062 100.027344 10.976562 99.828125 11.152344 L 99.53125 11.414062 C 99.429688 11.503906 99.332031 11.59375 99.238281 11.6875 C 98.855469 12.0625 98.472656 12.429688 98.117188 12.832031 C 97.941406 13.027344 97.753906 13.21875 97.585938 13.425781 L 97.082031 14.042969 C 97 14.148438 96.914062 14.246094 96.835938 14.359375 L 96.605469 14.683594 L 96.144531 15.335938 C 97.40625 13.625 98.890625 12.09375 100.5625 10.796875 L 101.191406 10.3125 C 101.398438 10.148438 101.617188 10.003906 101.835938 9.847656 L 102.160156 9.621094 C 102.265625 9.546875 102.378906 9.476562 102.488281 9.402344 C 102.710938 9.257812 102.933594 9.109375 103.15625 8.972656 C 104.054688 8.417969 104.980469 7.90625 105.929688 7.445312 C 106.875 6.980469 107.847656 6.5625 108.835938 6.195312 C 109.324219 6.011719 109.828125 5.863281 110.335938 5.746094 C 110.585938 5.683594 110.847656 5.644531 111.109375 5.601562 L 111.886719 5.46875 C 113.96875 5.140625 116.082031 5.007812 118.183594 5.144531 C 120.28125 5.265625 122.367188 5.664062 124.355469 6.34375 C 126.351562 7.011719 128.222656 8.023438 129.960938 9.207031 C 131.6875 10.414062 133.253906 11.855469 134.632812 13.457031 C 136.011719 15.058594 137.230469 16.816406 138.167969 18.722656 Z M 138.167969 18.722656 " fill-opacity="1" fill-rule="nonzero"/><g clip-path="url(#bda3cce06a)"><path fill="#fcf0e3" d="M 108.679688 0.863281 C 122.488281 0.402344 131.402344 7.347656 136.074219 12.550781 C 131.746094 5.148438 123.71875 0.175781 114.53125 0.175781 C 112.515625 0.171875 110.558594 0.410156 108.679688 0.863281 Z M 108.679688 0.863281 " fill-opacity="1" fill-rule="nonzero"/></g><path fill="#ffffff" d="M 99.078125 23.722656 C 99.078125 23.996094 99.105469 24.269531 99.15625 24.542969 C 99.210938 24.8125 99.292969 25.074219 99.398438 25.328125 C 99.503906 25.585938 99.632812 25.828125 99.785156 26.054688 C 99.9375 26.285156 100.113281 26.5 100.308594 26.695312 C 100.503906 26.886719 100.714844 27.0625 100.945312 27.214844 C 101.171875 27.371094 101.414062 27.5 101.667969 27.605469 C 101.925781 27.710938 102.1875 27.789062 102.457031 27.84375 C 102.726562 27.898438 103 27.925781 103.277344 27.925781 C 103.550781 27.925781 103.824219 27.898438 104.09375 27.84375 C 104.367188 27.789062 104.628906 27.710938 104.882812 27.605469 C 105.136719 27.5 105.378906 27.371094 105.609375 27.214844 C 105.839844 27.0625 106.050781 26.886719 106.246094 26.695312 C 106.441406 26.5 106.613281 26.285156 106.765625 26.054688 C 106.921875 25.828125 107.050781 25.585938 107.15625 25.328125 C 107.261719 25.074219 107.339844 24.8125 107.394531 24.542969 C 107.449219 24.269531 107.476562 23.996094 107.476562 23.722656 C 107.476562 23.445312 107.449219 23.171875 107.394531 22.902344 C 107.339844 22.628906 107.261719 22.367188 107.15625 22.113281 C 107.050781 21.859375 106.921875 21.617188 106.765625 21.386719 C 106.613281 21.15625 106.441406 20.945312 106.246094 20.75 C 106.050781 20.554688 105.839844 20.378906 105.609375 20.226562 C 105.378906 20.074219 105.136719 19.945312 104.882812 19.839844 C 104.628906 19.734375 104.367188 19.652344 104.09375 19.597656 C 103.824219 19.546875 103.550781 19.519531 103.277344 19.519531 C 103 19.519531 102.726562 19.546875 102.457031 19.597656 C 102.1875 19.652344 101.925781 19.734375 101.667969 19.839844 C 101.414062 19.945312 101.171875 20.074219 100.945312 20.226562 C 100.714844 20.378906 100.503906 20.554688 100.308594 20.75 C 100.113281 20.945312 99.9375 21.15625 99.785156 21.386719 C 99.632812 21.617188 99.503906 21.859375 99.398438 22.113281 C 99.292969 22.367188 99.210938 22.628906 99.15625 22.902344 C 99.105469 23.171875 99.078125 23.445312 99.078125 23.722656 Z M 99.078125 23.722656 " fill-opacity="0.8" fill-rule="nonzero"/><path fill="#ffffff" d="M 99.078125 31.691406 C 99.078125 32 99.140625 32.296875 99.257812 32.578125 C 99.375 32.863281 99.542969 33.113281 99.757812 33.332031 C 99.976562 33.550781 100.226562 33.714844 100.507812 33.835938 C 100.792969 33.953125 101.089844 34.011719 101.394531 34.011719 C 101.703125 34.011719 101.996094 33.953125 102.28125 33.835938 C 102.566406 33.714844 102.816406 33.550781 103.03125 33.332031 C 103.25 33.113281 103.417969 32.863281 103.535156 32.578125 C 103.652344 32.296875 103.710938 32 103.710938 31.691406 C 103.710938 31.386719 103.652344 31.089844 103.535156 30.804688 C 103.417969 30.523438 103.25 30.273438 103.03125 30.054688 C 102.816406 29.835938 102.566406 29.667969 102.28125 29.550781 C 101.996094 29.433594 101.703125 29.375 101.394531 29.375 C 101.089844 29.375 100.792969 29.433594 100.507812 29.550781 C 100.226562 29.667969 99.976562 29.835938 99.757812 30.054688 C 99.542969 30.273438 99.375 30.523438 99.257812 30.804688 C 99.140625 31.089844 99.078125 31.386719 99.078125 31.691406 Z M 99.078125 31.691406 " fill-opacity="0.8" fill-rule="nonzero"/><path fill="#ffffff" d="M 124.886719 15.800781 C 128.226562 14.816406 132.605469 16.773438 134.765625 20.171875 C 137.074219 23.804688 136.847656 29.082031 134.203125 31.535156 C 133.804688 31.910156 132.609375 33.019531 131.367188 32.746094 C 129.414062 32.320312 129.855469 29.035156 127.382812 24.808594 C 124.925781 20.605469 121.835938 19.3125 122.441406 17.503906 C 122.804688 16.414062 124.230469 15.996094 124.886719 15.800781 Z M 124.886719 15.800781 " fill-opacity="0.8" fill-rule="nonzero"/><path fill="#fc357b" d="M 98.316406 71.515625 C 98.421875 71.519531 98.527344 71.511719 98.632812 71.488281 C 99.386719 71.332031 99.875 70.59375 99.722656 69.835938 C 99.316406 67.816406 99.703125 66.09375 100.867188 64.722656 C 101.785156 63.640625 102.871094 63.15625 102.878906 63.148438 C 103.589844 62.847656 103.917969 62.027344 103.621094 61.316406 C 103.324219 60.601562 102.5 60.269531 101.789062 60.570312 C 101.628906 60.640625 100.160156 61.289062 98.84375 62.792969 C 97.589844 64.222656 96.25 66.703125 96.992188 70.394531 C 97.121094 71.042969 97.683594 71.496094 98.316406 71.515625 Z M 98.316406 71.515625 " fill-opacity="1" fill-rule="nonzero"/><path fill="#fc357b" d="M 95.300781 57.773438 C 95.300781 57.773438 86.980469 56.21875 85.472656 61.402344 C 84.546875 64.574219 87.640625 65.75 87.640625 65.75 C 87.640625 65.75 85.328125 59.226562 95.691406 58.699219 C 95.6875 58.699219 96.226562 57.84375 95.300781 57.773438 Z M 95.300781 57.773438 " fill-opacity="1" fill-rule="nonzero"/><path fill="#db4f64" d="M 114.210938 75.84375 C 114.257812 75.871094 114.300781 75.894531 114.339844 75.914062 L 119.511719 58.402344 L 119.371094 58.359375 Z M 114.210938 75.84375 " fill-opacity="1" fill-rule="nonzero"/><path fill="#db4f64" d="M 115.707031 75.601562 L 115.875 75.535156 L 120.761719 58.402344 L 120.589844 58.480469 Z M 115.707031 75.601562 " fill-opacity="1" fill-rule="nonzero"/><path fill="#005aa2" d="M 126.875 68.792969 C 128.339844 69.136719 129.964844 67.523438 130.449219 65.582031 C 130.777344 64.265625 130.589844 62.800781 129.480469 61.6875 C 129.480469 61.6875 127.347656 61.386719 126.144531 62.394531 C 125.914062 62.585938 125.714844 62.832031 125.574219 63.140625 C 124.703125 65.023438 124.414062 68.210938 126.875 68.792969 Z M 126.875 68.792969 " fill-opacity="1" fill-rule="nonzero"/><path fill="#1e8fc6" d="M 127.886719 66.765625 C 128.78125 66.976562 129.734375 66.457031 130.449219 65.582031 C 130.777344 64.269531 130.589844 62.804688 129.480469 61.691406 C 129.480469 61.691406 127.347656 61.386719 126.144531 62.394531 C 125.710938 64.1875 125.929688 66.304688 127.886719 66.765625 Z M 127.886719 66.765625 " fill-opacity="1" fill-rule="nonzero"/><path fill="#dfbeb5" d="M 98.5 73.574219 C 99.84375 73.257812 101.210938 73.082031 102.578125 73.003906 C 102.917969 72.984375 103.261719 72.972656 103.601562 72.972656 C 103.941406 72.96875 104.28125 72.972656 104.621094 72.988281 C 105.300781 73.011719 105.980469 73.074219 106.648438 73.167969 C 107.316406 73.261719 107.980469 73.394531 108.628906 73.574219 C 109.277344 73.75 109.910156 73.96875 110.523438 74.230469 C 111.136719 74.492188 111.730469 74.796875 112.289062 75.152344 C 112.570312 75.328125 112.84375 75.519531 113.109375 75.71875 C 113.378906 75.910156 113.632812 76.125 113.886719 76.339844 L 114.015625 76.421875 C 114.015625 76.421875 114.046875 76.4375 114.0625 76.445312 L 114.121094 76.480469 C 114.167969 76.511719 114.210938 76.535156 114.253906 76.566406 C 114.339844 76.625 114.429688 76.691406 114.511719 76.761719 C 114.679688 76.90625 114.835938 77.0625 114.980469 77.234375 C 115.269531 77.582031 115.519531 77.972656 115.722656 78.386719 C 116.132812 79.21875 116.378906 80.148438 116.519531 81.09375 C 116.65625 82.046875 116.675781 83.019531 116.644531 83.992188 L 116.609375 84.722656 L 116.542969 85.457031 L 116.457031 86.191406 L 116.355469 86.929688 C 116.21875 87.914062 116.074219 88.898438 115.90625 89.875 C 115.738281 90.855469 115.554688 91.828125 115.363281 92.816406 C 115.269531 93.3125 115.183594 93.8125 115.152344 94.328125 C 115.113281 94.832031 115.136719 95.339844 115.203125 95.835938 C 115.253906 95.691406 115.292969 95.609375 115.292969 95.609375 C 115.292969 95.757812 115.382812 95.957031 115.550781 96.195312 C 115.539062 96.074219 115.53125 95.953125 115.527344 95.832031 C 115.503906 95.335938 115.519531 94.855469 115.59375 94.371094 C 115.628906 94.132812 115.675781 93.894531 115.730469 93.65625 C 115.78125 93.417969 115.84375 93.175781 115.90625 92.933594 C 116.152344 91.96875 116.417969 91 116.625 90.015625 C 116.839844 89.035156 117.039062 88.046875 117.210938 87.058594 L 117.335938 86.316406 L 117.445312 85.5625 L 117.53125 84.804688 L 117.59375 84.039062 C 117.660156 83.019531 117.632812 81.988281 117.503906 80.957031 C 117.355469 79.933594 117.109375 78.894531 116.628906 77.9375 C 116.386719 77.460938 116.09375 77.003906 115.738281 76.585938 C 115.558594 76.378906 115.359375 76.183594 115.144531 76.007812 C 115.039062 75.917969 114.925781 75.832031 114.804688 75.75 C 114.746094 75.710938 114.683594 75.675781 114.621094 75.636719 L 114.519531 75.578125 C 114.503906 75.570312 114.488281 75.5625 114.476562 75.554688 C 113.402344 74.640625 112.160156 73.929688 110.855469 73.417969 C 109.53125 72.890625 108.128906 72.605469 106.730469 72.472656 C 106.027344 72.410156 105.324219 72.398438 104.625 72.414062 C 104.277344 72.425781 103.925781 72.445312 103.578125 72.472656 C 103.234375 72.503906 102.886719 72.542969 102.539062 72.589844 C 101.847656 72.683594 101.164062 72.8125 100.488281 72.976562 C 99.8125 73.128906 99.144531 73.324219 98.5 73.574219 Z M 98.5 73.574219 " fill-opacity="1" fill-rule="nonzero"/><path fill="#dfbeb5" d="M 107.765625 100.820312 C 108.53125 101.097656 109.359375 101.175781 110.179688 101.140625 C 110.996094 101.097656 111.820312 100.917969 112.59375 100.601562 C 112.976562 100.4375 113.351562 100.25 113.703125 100.019531 C 114.046875 99.789062 114.378906 99.53125 114.675781 99.238281 C 114.925781 98.992188 115.152344 98.726562 115.355469 98.441406 C 115.28125 98.277344 115.226562 98.117188 115.183594 97.964844 C 114.875 98.234375 114.5625 98.484375 114.234375 98.710938 C 113.925781 98.929688 113.605469 99.128906 113.277344 99.3125 C 112.949219 99.492188 112.609375 99.652344 112.261719 99.796875 C 111.570312 100.085938 110.839844 100.300781 110.089844 100.464844 C 109.339844 100.625 108.570312 100.742188 107.765625 100.820312 Z M 107.765625 100.820312 " fill-opacity="1" fill-rule="nonzero"/><path fill="#dfbeb5" d="M 119.710938 93.355469 C 120.472656 93.4375 121.238281 93.371094 121.988281 93.238281 C 122.738281 93.105469 123.476562 92.890625 124.183594 92.609375 C 124.898438 92.328125 125.574219 91.953125 126.207031 91.511719 C 126.464844 91.320312 126.714844 91.117188 126.949219 90.890625 C 126.804688 90.703125 126.753906 90.554688 126.738281 90.46875 C 126.445312 90.628906 126.152344 90.78125 125.851562 90.921875 C 125.195312 91.234375 124.539062 91.53125 123.863281 91.800781 C 123.1875 92.066406 122.503906 92.328125 121.8125 92.578125 C 121.121094 92.832031 120.421875 93.078125 119.710938 93.355469 Z M 119.710938 93.355469 " fill-opacity="1" fill-rule="nonzero"/><path fill="#dfbeb5" d="M 89.714844 77.179688 C 92.089844 81.921875 96.578125 83.824219 99.296875 84.949219 C 105.230469 87.414062 103.058594 92.488281 102.265625 98.789062 C 102 100.886719 107.339844 107.472656 112.683594 108.496094 C 109.742188 106.921875 105.246094 104.179688 104.289062 101.6875 C 102.039062 95.832031 106.539062 91.050781 103.710938 86.617188 C 102.332031 84.453125 100.742188 85.289062 95.023438 81.402344 C 92.628906 79.769531 90.835938 78.214844 89.714844 77.179688 Z M 89.714844 77.179688 " fill-opacity="1" fill-rule="nonzero"/><path fill="#f18705" d="M 100.390625 53.667969 C 100.390625 53.835938 100.421875 53.996094 100.484375 54.148438 C 100.550781 54.300781 100.640625 54.4375 100.757812 54.554688 C 100.875 54.671875 101.007812 54.761719 101.164062 54.824219 C 101.316406 54.890625 101.476562 54.921875 101.640625 54.921875 C 101.808594 54.921875 101.96875 54.890625 102.121094 54.824219 C 102.273438 54.761719 102.410156 54.671875 102.527344 54.554688 C 102.644531 54.4375 102.734375 54.300781 102.796875 54.148438 C 102.863281 53.996094 102.894531 53.835938 102.894531 53.667969 C 102.894531 53.503906 102.863281 53.34375 102.796875 53.1875 C 102.734375 53.035156 102.644531 52.898438 102.527344 52.78125 C 102.410156 52.664062 102.273438 52.574219 102.121094 52.511719 C 101.96875 52.449219 101.808594 52.414062 101.640625 52.414062 C 101.476562 52.414062 101.316406 52.449219 101.164062 52.511719 C 101.007812 52.574219 100.875 52.664062 100.757812 52.78125 C 100.640625 52.898438 100.550781 53.035156 100.484375 53.1875 C 100.421875 53.34375 100.390625 53.503906 100.390625 53.667969 Z M 100.390625 53.667969 " fill-opacity="1" fill-rule="nonzero"/><path fill="#f5a501" d="M 100.734375 53.554688 C 100.734375 53.691406 100.761719 53.820312 100.8125 53.945312 C 100.863281 54.074219 100.9375 54.183594 101.035156 54.277344 C 101.128906 54.375 101.242188 54.449219 101.367188 54.5 C 101.492188 54.554688 101.621094 54.578125 101.757812 54.578125 C 101.894531 54.578125 102.023438 54.554688 102.148438 54.5 C 102.273438 54.449219 102.386719 54.375 102.480469 54.277344 C 102.578125 54.183594 102.652344 54.074219 102.703125 53.945312 C 102.753906 53.820312 102.78125 53.691406 102.78125 53.554688 C 102.78125 53.417969 102.753906 53.289062 102.703125 53.164062 C 102.652344 53.039062 102.578125 52.925781 102.480469 52.832031 C 102.386719 52.734375 102.273438 52.660156 102.148438 52.609375 C 102.023438 52.558594 101.894531 52.53125 101.757812 52.53125 C 101.621094 52.53125 101.492188 52.558594 101.367188 52.609375 C 101.242188 52.660156 101.128906 52.734375 101.035156 52.832031 C 100.9375 52.925781 100.863281 53.039062 100.8125 53.164062 C 100.761719 53.289062 100.734375 53.417969 100.734375 53.554688 Z M 100.734375 53.554688 " fill-opacity="1" fill-rule="nonzero"/><path fill="#f9bd00" d="M 100.960938 53.441406 C 100.960938 53.695312 101.050781 53.90625 101.226562 54.085938 C 101.40625 54.265625 101.621094 54.351562 101.871094 54.351562 C 102.121094 54.351562 102.335938 54.265625 102.515625 54.085938 C 102.691406 53.90625 102.78125 53.695312 102.78125 53.441406 C 102.78125 53.191406 102.691406 52.976562 102.515625 52.796875 C 102.335938 52.621094 102.121094 52.53125 101.871094 52.53125 C 101.621094 52.53125 101.40625 52.621094 101.226562 52.796875 C 101.050781 52.976562 100.960938 53.191406 100.960938 53.441406 Z M 100.960938 53.441406 " fill-opacity="1" fill-rule="nonzero"/><path fill="#f18705" d="M 103.234375 54.351562 C 103.234375 54.519531 103.265625 54.679688 103.332031 54.832031 C 103.394531 54.984375 103.484375 55.121094 103.601562 55.238281 C 103.71875 55.355469 103.855469 55.445312 104.007812 55.511719 C 104.160156 55.574219 104.320312 55.605469 104.488281 55.605469 C 104.652344 55.605469 104.8125 55.574219 104.964844 55.511719 C 105.117188 55.445312 105.253906 55.355469 105.371094 55.238281 C 105.488281 55.121094 105.578125 54.984375 105.644531 54.832031 C 105.707031 54.679688 105.738281 54.519531 105.738281 54.351562 C 105.738281 54.1875 105.707031 54.027344 105.644531 53.875 C 105.578125 53.71875 105.488281 53.585938 105.371094 53.46875 C 105.253906 53.347656 105.117188 53.257812 104.964844 53.195312 C 104.8125 53.132812 104.652344 53.101562 104.488281 53.101562 C 104.320312 53.101562 104.160156 53.132812 104.007812 53.195312 C 103.855469 53.257812 103.71875 53.347656 103.601562 53.46875 C 103.484375 53.585938 103.394531 53.71875 103.332031 53.875 C 103.265625 54.027344 103.234375 54.1875 103.234375 54.351562 Z M 103.234375 54.351562 " fill-opacity="1" fill-rule="nonzero"/><path fill="#f5a501" d="M 103.578125 54.238281 C 103.578125 54.371094 103.601562 54.503906 103.65625 54.628906 C 103.707031 54.753906 103.78125 54.863281 103.875 54.960938 C 103.972656 55.058594 104.082031 55.128906 104.207031 55.183594 C 104.332031 55.234375 104.464844 55.261719 104.601562 55.261719 C 104.734375 55.261719 104.867188 55.234375 104.992188 55.183594 C 105.117188 55.128906 105.226562 55.058594 105.324219 54.960938 C 105.417969 54.863281 105.492188 54.753906 105.542969 54.628906 C 105.597656 54.503906 105.621094 54.371094 105.621094 54.238281 C 105.621094 54.101562 105.597656 53.96875 105.542969 53.84375 C 105.492188 53.71875 105.417969 53.609375 105.324219 53.511719 C 105.226562 53.417969 105.117188 53.34375 104.992188 53.292969 C 104.867188 53.238281 104.734375 53.214844 104.601562 53.214844 C 104.464844 53.214844 104.332031 53.238281 104.207031 53.292969 C 104.082031 53.34375 103.972656 53.417969 103.875 53.511719 C 103.78125 53.609375 103.707031 53.71875 103.65625 53.84375 C 103.601562 53.96875 103.578125 54.101562 103.578125 54.238281 Z M 103.578125 54.238281 " fill-opacity="1" fill-rule="nonzero"/><path fill="#f9bd00" d="M 103.804688 54.125 C 103.804688 54.375 103.894531 54.589844 104.070312 54.769531 C 104.25 54.945312 104.464844 55.035156 104.714844 55.035156 C 104.964844 55.035156 105.179688 54.945312 105.359375 54.769531 C 105.535156 54.589844 105.625 54.375 105.625 54.125 C 105.625 53.871094 105.535156 53.65625 105.359375 53.480469 C 105.179688 53.300781 104.964844 53.214844 104.714844 53.214844 C 104.464844 53.214844 104.25 53.300781 104.070312 53.480469 C 103.894531 53.65625 103.804688 53.871094 103.804688 54.125 Z M 103.804688 54.125 " fill-opacity="1" fill-rule="nonzero"/><path fill="#c69297" d="M 100.238281 72.996094 C 105.804688 71.730469 112.589844 75 114.210938 75.84375 C 114.257812 75.871094 114.300781 75.894531 114.339844 75.914062 C 114.488281 75.992188 114.570312 76.039062 114.570312 76.039062 L 115.707031 75.597656 L 115.875 75.53125 L 125.425781 71.835938 L 126.316406 69.226562 C 123.800781 69.632812 119.183594 70.296875 117.027344 70.09375 C 113.988281 69.800781 111.816406 65.890625 109.644531 61.6875 C 108.703125 59.859375 107.195312 58.648438 105.789062 57.863281 L 103.855469 62.992188 Z M 100.238281 72.996094 " fill-opacity="0.2" fill-rule="nonzero"/><path fill="#005aa2" d="M 99.699219 70.488281 C 105.730469 73.457031 107.800781 70.839844 108.578125 68.207031 C 108.742188 67.660156 108.847656 67.113281 108.925781 66.617188 C 109.359375 63.71875 104.292969 62.996094 104.292969 62.996094 L 104.292969 62.851562 L 104.726562 60.679688 L 103.714844 61.257812 C 103.714844 61.257812 101.25 62.667969 99.808594 64.636719 C 99.648438 64.855469 99.5 65.082031 99.371094 65.3125 C 98.066406 67.632812 99.699219 70.488281 99.699219 70.488281 Z M 99.699219 70.488281 " fill-opacity="1" fill-rule="nonzero"/><path fill="#1e8fc6" d="M 102.871094 69.539062 C 105.90625 70.464844 107.609375 69.597656 108.578125 68.210938 C 108.742188 67.664062 108.847656 67.117188 108.925781 66.621094 C 109.359375 63.722656 104.292969 63 104.292969 63 L 104.292969 62.855469 L 104.726562 60.679688 L 103.714844 61.257812 C 103.714844 61.257812 101.25 62.667969 99.808594 64.640625 C 99.804688 64.65625 99.800781 64.667969 99.800781 64.679688 C 99.425781 66.832031 100.785156 68.90625 102.871094 69.539062 Z M 102.871094 69.539062 " fill-opacity="1" fill-rule="nonzero"/><path fill="#f5a501" d="M 116.824219 84.585938 C 116.824219 85.023438 126.640625 78.066406 129.621094 81.109375 C 129.621094 81.109375 129.898438 80.597656 130.058594 79.789062 C 130.289062 78.621094 130.277344 76.84375 128.839844 75.109375 C 128.316406 74.476562 127.488281 74.171875 126.679688 74.316406 C 124.230469 74.75 118.769531 76.292969 117.027344 81.515625 C 117.027344 81.519531 117.027344 81.519531 117.027344 81.519531 C 116.976562 81.671875 116.929688 81.824219 116.886719 81.980469 C 116.886719 81.980469 116.824219 84.152344 116.824219 84.585938 Z M 116.824219 84.585938 " fill-opacity="1" fill-rule="nonzero"/><path fill="#f9bd00" d="M 116.96875 84.007812 C 116.96875 84.445312 126.785156 77.488281 129.765625 80.53125 C 129.765625 80.53125 129.914062 80.257812 130.054688 79.789062 C 130.105469 79.523438 130.148438 79.226562 130.160156 78.90625 C 130.207031 77.816406 129.945312 76.453125 128.835938 75.113281 C 128.3125 74.480469 127.488281 74.175781 126.679688 74.320312 C 124.988281 74.621094 121.855469 75.449219 119.507812 77.65625 C 118.460938 78.644531 117.5625 79.902344 117.027344 81.519531 C 117.027344 81.523438 117.027344 81.523438 117.027344 81.523438 C 117.011719 81.976562 116.96875 83.636719 116.96875 84.007812 Z M 116.96875 84.007812 " fill-opacity="1" fill-rule="nonzero"/><path fill="#f5a501" d="M 101.25 86.90625 C 101.25 86.90625 101.558594 86.996094 101.683594 87.488281 C 101.765625 87.8125 102.117188 88.039062 102.117188 88.210938 C 102.117188 88.648438 113.410156 81.691406 116.886719 84.734375 C 116.886719 84.734375 117.050781 84.414062 117.25 83.902344 C 117.792969 82.496094 118.554688 79.652344 116.683594 78.054688 C 115.925781 77.410156 114.910156 77.167969 113.933594 77.328125 C 111.417969 77.75 104.792969 79.988281 101.25 86.90625 Z M 101.25 86.90625 " fill-opacity="1" fill-rule="nonzero"/><path fill="#f9bd00" d="M 101.539062 86.402344 C 101.707031 86.929688 102.292969 87.195312 102.800781 86.96875 C 106.054688 85.507812 114.175781 81.71875 117.25 83.902344 C 117.367188 83.597656 117.496094 83.222656 117.605469 82.808594 C 117.996094 81.320312 118.148438 79.308594 116.683594 78.058594 C 115.925781 77.410156 114.910156 77.167969 113.933594 77.332031 C 111.675781 77.710938 106.335938 79.140625 102.707031 84.4375 C 102.292969 85.039062 101.902344 85.695312 101.539062 86.402344 Z M 101.539062 86.402344 " fill-opacity="1" fill-rule="nonzero"/><path fill="#f7d300" d="M 119.78125 81.402344 C 121.226562 81.402344 126.875 79.082031 128.757812 78.609375 C 129.449219 78.433594 129.886719 78.613281 130.164062 78.902344 C 130.1875 78.328125 130.125 77.679688 129.898438 76.996094 C 129.699219 76.382812 129.367188 75.746094 128.839844 75.109375 C 128.316406 74.476562 127.488281 74.171875 126.679688 74.316406 C 125.261719 74.570312 122.828125 75.191406 120.699219 76.6875 C 120.289062 76.976562 119.890625 77.296875 119.511719 77.652344 C 118.371094 79.558594 118.332031 81.402344 119.78125 81.402344 Z M 119.78125 81.402344 " fill-opacity="1" fill-rule="nonzero"/><path fill="#f4f400" d="M 121.375 79.660156 C 123.070312 79.75 124.101562 78.664062 125.574219 77.921875 C 126.507812 77.449219 127.90625 76.972656 129.902344 76.996094 C 129.703125 76.382812 129.367188 75.746094 128.839844 75.109375 C 128.316406 74.476562 127.492188 74.171875 126.683594 74.316406 C 125.265625 74.570312 122.832031 75.191406 120.699219 76.6875 C 119.992188 77.695312 119.804688 78.699219 120.21875 79.222656 C 120.332031 79.375 120.601562 79.625 121.375 79.660156 Z M 121.375 79.660156 " fill-opacity="1" fill-rule="nonzero"/><path fill="#f7d300" d="M 102.699219 85.3125 C 102.988281 85.890625 106.316406 84.300781 109.359375 83.285156 C 112.402344 82.265625 114.589844 82.125 116.96875 82.703125 C 117.183594 82.757812 117.394531 82.789062 117.605469 82.808594 C 117.804688 82.058594 117.941406 81.171875 117.839844 80.324219 C 117.742188 79.484375 117.410156 78.675781 116.683594 78.054688 C 115.929688 77.410156 114.910156 77.167969 113.933594 77.328125 C 111.910156 77.667969 107.410156 78.855469 103.886719 82.914062 C 103.480469 83.382812 103.082031 83.890625 102.710938 84.4375 C 102.632812 84.800781 102.605469 85.128906 102.699219 85.3125 Z M 102.699219 85.3125 " fill-opacity="1" fill-rule="nonzero"/><path fill="#f4f400" d="M 103.882812 82.914062 C 105.085938 82.660156 107.519531 81.578125 109.792969 80.820312 C 112.832031 79.804688 115.023438 79.660156 117.402344 80.242188 C 117.550781 80.277344 117.695312 80.300781 117.839844 80.324219 C 117.742188 79.484375 117.410156 78.675781 116.683594 78.054688 C 115.929688 77.410156 114.910156 77.167969 113.933594 77.328125 C 111.90625 77.667969 107.40625 78.855469 103.882812 82.914062 Z M 103.882812 82.914062 " fill-opacity="1" fill-rule="nonzero"/><path fill="#dfbeb5" d="M 82.992188 44.820312 C 83.210938 44.898438 83.429688 44.972656 83.652344 45.042969 C 84.261719 45.242188 84.875 45.4375 85.503906 45.617188 C 86.132812 45.792969 86.769531 45.960938 87.476562 46.082031 C 87.054688 45.492188 86.503906 45.054688 85.929688 44.679688 C 85.34375 44.308594 84.722656 44.011719 84.066406 43.796875 C 84.023438 43.78125 83.976562 43.765625 83.933594 43.753906 C 83.574219 44.0625 83.257812 44.417969 82.992188 44.820312 Z M 82.992188 44.820312 " fill-opacity="1" fill-rule="nonzero"/></g></g></g></svg>
